<svg width="18" height="14" viewBox="0 0 18 14" fill="none" xmlns="http://www.w3.org/2000/svg">
<mask id="path-1-inside-1_32049_217" fill="white">
<path d="M17.1069 2.31364C17.1069 1.39697 16.3569 0.646973 15.4402 0.646973H2.10685C1.19019 0.646973 0.440186 1.39697 0.440186 2.31364V12.3136C0.440186 13.2303 1.19019 13.9803 2.10685 13.9803H15.4402C16.3569 13.9803 17.1069 13.2303 17.1069 12.3136V2.31364ZM15.4402 2.31364L8.77352 6.48031L2.10685 2.31364H15.4402ZM15.4402 12.3136H2.10685V3.98031L8.77352 8.14697L15.4402 3.98031V12.3136Z"/>
</mask>
<path d="M15.4402 2.31364L16.5002 4.00964L22.4138 0.313639H15.4402V2.31364ZM8.77352 6.48031L7.71352 8.1763L8.77352 8.8388L9.83352 8.1763L8.77352 6.48031ZM2.10685 2.31364V0.313639H-4.86674L1.04685 4.00964L2.10685 2.31364ZM15.4402 12.3136V14.3136H17.4402V12.3136H15.4402ZM2.10685 12.3136H0.106852V14.3136H2.10685V12.3136ZM2.10685 3.98031L3.16685 2.28431L0.106852 0.371811V3.98031H2.10685ZM8.77352 8.14697L7.71352 9.84297L8.77352 10.5055L9.83352 9.84297L8.77352 8.14697ZM15.4402 3.98031H17.4402V0.371811L14.3802 2.28431L15.4402 3.98031ZM19.1069 2.31364C19.1069 0.292403 17.4614 -1.35303 15.4402 -1.35303V2.64697C15.2523 2.64697 15.1069 2.50154 15.1069 2.31364H19.1069ZM15.4402 -1.35303H2.10685V2.64697H15.4402V-1.35303ZM2.10685 -1.35303C0.0856162 -1.35303 -1.55981 0.292403 -1.55981 2.31364H2.44019C2.44019 2.50154 2.29475 2.64697 2.10685 2.64697V-1.35303ZM-1.55981 2.31364V12.3136H2.44019V2.31364H-1.55981ZM-1.55981 12.3136C-1.55981 14.3349 0.0856162 15.9803 2.10685 15.9803V11.9803C2.29475 11.9803 2.44019 12.1257 2.44019 12.3136H-1.55981ZM2.10685 15.9803H15.4402V11.9803H2.10685V15.9803ZM15.4402 15.9803C17.4614 15.9803 19.1069 14.3349 19.1069 12.3136H15.1069C15.1069 12.1257 15.2523 11.9803 15.4402 11.9803V15.9803ZM19.1069 12.3136V2.31364H15.1069V12.3136H19.1069ZM14.3802 0.617643L7.71352 4.78431L9.83352 8.1763L16.5002 4.00964L14.3802 0.617643ZM9.83352 4.78431L3.16685 0.617643L1.04685 4.00964L7.71352 8.1763L9.83352 4.78431ZM2.10685 4.31364H15.4402V0.313639H2.10685V4.31364ZM15.4402 10.3136H2.10685V14.3136H15.4402V10.3136ZM4.10685 12.3136V3.98031H0.106852V12.3136H4.10685ZM1.04685 5.6763L7.71352 9.84297L9.83352 6.45098L3.16685 2.28431L1.04685 5.6763ZM9.83352 9.84297L16.5002 5.6763L14.3802 2.28431L7.71352 6.45098L9.83352 9.84297ZM13.4402 3.98031V12.3136H17.4402V3.98031H13.4402Z" fill="#637381" mask="url(#path-1-inside-1_32049_217)"/>
</svg>
